HIERARCHY
ROOT pelvis
{
  OFFSET 0 100 0
  CHANNELS 6 Xposition Yposition Zposition Zrotation Xrotation Yrotation
  JOINT pelvis_right_femur
  {
    OFFSET -10.78128 -3.44521 -0.5502486
    CHANNELS 3 Zrotation Xrotation Yrotation
    JOINT right_femur_tibia
    {
      OFFSET -0.8047443 -44.0398 -0.1307829
      CHANNELS 3 Zrotation Xrotation Yrotation
      JOINT right_tibia_foot
      {
        OFFSET 3.006224 -47.83518 -5
        CHANNELS 3 Zrotation Xrotation Yrotation
        End Site
        {
          OFFSET 0 -5 15
        }
      }
    }
  }
  JOINT pelvis_left_femur
  {
    OFFSET 10.78128 -3.44521 -0.5502486
    CHANNELS 3 Zrotation Xrotation Yrotation
    JOINT left_femur_tibia
    {
      OFFSET 0.8047443 -44.0398 -0.1307829
      CHANNELS 3 Zrotation Xrotation Yrotation
      JOINT left_tibia_foot
      {
        OFFSET -4.370144 -48.10324 -4.275266
        CHANNELS 3 Zrotation Xrotation Yrotation
        End Site
        {
          OFFSET 0 -5 15
        }
      }
    }
  }
  JOINT pelvis_spine1
  {
    OFFSET 0 6.468898 -3.129235
    CHANNELS 3 Zrotation Xrotation Yrotation
    JOINT spine1
    {
      OFFSET 0 23.15396 4.99043
      CHANNELS 3 Zrotation Xrotation Yrotation
      JOINT spine2
      {
        OFFSET 0 20.79997 -5.064912
        CHANNELS 3 Zrotation Xrotation Yrotation
        JOINT neck
        {
          OFFSET 0 14.38658 9.616178
          CHANNELS 3 Zrotation Xrotation Yrotation
          End Site
          {
            OFFSET 0 20 0
          }
        }
      }
      JOINT right_manubrium
      {
        OFFSET -5.722621 16.35077 3.967754
        CHANNELS 3 Zrotation Xrotation Yrotation
        JOINT right_clavicle
        {
          OFFSET -13.16364 1.694482 -4.693211
          CHANNELS 3 Zrotation Xrotation Yrotation
          JOINT right_humerus
          {
            OFFSET -28.5034 -0.3100689 -2.792744
            CHANNELS 3 Zrotation Xrotation Yrotation
            JOINT right_radius
            {
              OFFSET -25.15693 0.02248979 -1.271978
              CHANNELS 3 Zrotation Xrotation Yrotation
              End Site
              {
                OFFSET -15 0 0
              }
            }
          }
        }
      }
      JOINT left_manubrium
      {
        OFFSET 5.722621 16.35077 3.967754
        CHANNELS 3 Zrotation Xrotation Yrotation
        JOINT left_clavicle
        {
          OFFSET 13.16364 1.694482 -4.693211
          CHANNELS 3 Zrotation Xrotation Yrotation
          JOINT left_humerus
          {
            OFFSET 29.39168 -1.063119 -2.237045
            CHANNELS 3 Zrotation Xrotation Yrotation
            JOINT left_radius
            {
              OFFSET 24.59957 -0.9528479 0.9047498
              CHANNELS 3 Zrotation Xrotation Yrotation
              End Site
              {
                OFFSET 15 -0 -0
              }
            }
          }
        }
      }
    }
  }
}
MOTION
Frames: 17
Frame Time: 0.0416666666667
0 103.5113 0 1.087151 0.7188202 0.0851245 4.792371 -18.18024 11.37853 -0 40.18297 -0 -4.784137 -17.94325 -2.847022 -8.15402 9.304401 -24.21025 -0 5.880876 -0 15.36961 -14.06004 30.75628 -4.194743 -4.394172 5.706047 2.638595 10.06686 -7.28249 1.840415 21.81028 6.01912 2.340589 -25.48753 10.12091 6.707153 -20.41849 11.72125 85.65047 38.47481 -17.90285 -0 0 16.06445 -3.487236 7.017847 3.336268 6.223784 -19.16487 -0.1045921 -92.53366 22.51851 20.81828 0 0 -16.69843 16.05579 15.06315 -3.725578
0.3231502 103.4682 1.557141 1.040326 0.9207551 0.2292218 5.077686 -19.71039 11.30412 -0 39.14104 -0 -4.732201 -17.06229 -2.766793 -8.14993 9.861511 -23.93336 -0 5.465081 -0 15.75146 -14.17459 30.66095 -4.14384 -4.198589 5.66767 2.645576 10.18587 -7.268945 1.930549 21.70055 5.973706 2.307945 -25.6123 10.19613 6.480472 -20.43889 11.68648 86.13507 38.54254 -18.29146 -0 0 15.6373 -3.410552 6.949525 3.405338 6.169892 -19.33299 -0.4181012 -91.87469 22.50887 20.28239 0 0 -18.2711 16.29659 14.46455 -3.736439
0.6374739 103.0453 3.859974 0.6629448 1.275459 0.4743615 5.348214 -25.18377 9.055667 -0 33.03571 -0 -4.977982 -12.72263 -2.142266 -7.561995 12.09798 -21.88619 -0 4.931928 -0 15.00529 -15.4512 28.04604 -3.694963 -3.357763 4.95352 2.772485 10.44732 -7.508969 1.869384 21.42395 6.296431 2.458461 -25.84304 10.20758 5.493549 -20.07785 11.73413 87.7044 37.31762 -19.78807 -0 0 13.60914 -5.716462 7.780473 4.621217 6.087722 -20.44057 -1.825586 -89.18649 21.68329 17.69994 0 0 -22.98428 16.3264 13.21391 -3.625765
0.9480669 102.3953 6.648624 0.4248313 1.511755 0.7748758 5.561248 -28.5703 7.711435 -0 29.00078 -0 -5.099628 -9.954801 -1.779943 -7.285135 13.43967 -20.53417 -0 5.055034 -0 14.41265 -16.18364 26.47007 -3.412416 -2.745485 4.527018 2.854225 10.58766 -7.633332 1.825817 21.25321 6.49844 2.602954 -25.89459 10.16995 4.936925 -19.79402 11.71581 88.61268 36.79046 -20.70133 -0 0 12.36034 -6.94249 8.166241 5.253423 6.016568 -21.05606 -2.781471 -87.70188 21.38472 16.23318 0 0 -25.8738 16.06163 12.27818 -3.250881
1.261652 101.6684 9.811704 0.173048 2.125673 1.120926 6.312175 -31.65837 7.417509 -0 25.68923 -0 -4.931597 -7.902978 -1.528639 -7.210349 14.35249 -19.47789 -0 5.727741 -0 14.06608 -16.63012 25.56691 -3.194287 -2.194126 4.36554 2.979418 10.73325 -7.794445 1.766035 20.9067 6.686673 2.864876 -25.97602 10.10013 4.897392 -19.56656 11.6435 89.1464 37.59583 -21.63786 -0 0 11.75215 -6.999954 8.353475 5.189103 5.968866 -21.42328 -3.52083 -86.94535 21.78287 15.63968 0 0 -28.35857 15.49989 11.04446 -2.377608
1.582883 100.9788 13.30766 -0.2638867 3.079132 1.490749 7.558196 -34.42661 7.725944 -0 22.5922 -0 -4.736608 -6.20811 -1.230677 -7.037174 14.82646 -18.41407 -0 7.456388 -0 12.99094 -17.10329 24.4582 -2.855583 -1.683932 4.295066 3.145627 10.82227 -8.087342 1.585802 20.37481 6.993847 3.380375 -26.02433 9.889066 5.427694 -19.23064 11.55249 89.15549 39.34326 -22.59839 -0 0 11.84105 -6.576869 8.705119 4.585535 6.081687 -21.70446 -4.013568 -87.08691 22.78171 15.98575 0 0 -29.72485 14.42428 10.00179 -0.9706056
1.913549 100.3748 17.12189 -0.8405166 3.965081 1.846746 8.703551 -36.18966 7.839412 -0 19.81752 -0 -4.850392 -4.810883 -0.7912732 -6.625048 14.78847 -17.31693 -0 10.29831 -0 10.77607 -17.6393 22.68389 -2.344986 -1.281041 4.195709 3.23925 10.77206 -8.385409 1.326767 19.88512 7.365627 4.051322 -25.91291 9.536389 6.214066 -18.70136 11.45254 88.65414 40.93109 -23.21738 -0 0 12.34181 -6.427702 9.299936 3.835345 6.432533 -21.97146 -4.188566 -87.992 23.76632 16.91416 0 0 -29.30467 13.22463 9.771983 0.3127329
2.240391 99.87479 21.24255 -1.436964 4.465234 2.152777 9.264783 -36.57144 7.295315 -0 17.71797 -0 -5.388991 -3.877651 -0.3709318 -5.985299 14.46453 -16.39126 -0 13.92792 -0 7.45884 -18.14611 20.20808 -1.719763 -1.000941 3.96394 3.20773 10.44174 -8.541667 1.098624 19.6942 7.675524 4.618855 -25.67397 9.170364 6.837941 -17.97178 11.31115 87.92174 41.54355 -23.33958 -0 0 12.71761 -6.801217 10.00589 3.351569 6.803901 -22.0899 -4.068041 -89.25725 24.80395 17.96474 0 0 -27.47206 11.73696 10.64444 1.727039
2.551791 99.49076 25.66249 -1.938282 4.608704 2.399853 9.255658 -35.91082 6.258085 -0 16.29938 -0 -6.175547 -3.352847 -0.08430047 -5.287309 13.9934 -15.67338 -0 17.85116 -0 3.773566 -18.36039 17.44007 -1.086733 -0.8377719 3.673083 3.083406 9.928336 -8.542778 0.9470498 19.78388 7.865537 4.945511 -25.42949 8.88255 7.129771 -17.19952 11.15777 87.33799 41.22989 -23.1919 -0 0 12.69259 -7.537413 10.64261 3.270699 7.026764 -22.07562 -3.774969 -90.37972 25.76666 18.78578 0 0 -25.30556 10.14101 12.07251 3.283726
2.845316 99.22598 30.383 -2.299434 4.540268 2.601121 8.942226 -34.706 5.079898 -0 15.2715 -0 -7.00652 -3.01443 0.06603324 -4.668872 13.40275 -15.022 -0 21.79937 -0 0.4243576 -18.1222 14.80421 -0.5134271 -0.7811378 3.438544 2.923903 9.433329 -8.466591 0.8492953 19.99819 7.945425 5.057118 -25.23903 8.65697 7.126684 -16.54476 11.04403 87.10851 40.36407 -23.0683 -0 0 12.31316 -8.437229 11.10613 3.498357 7.087093 -22.07052 -3.453032 -91.08828 26.40898 19.25109 0 0 -23.5609 8.75681 13.40305 4.727571
3.122917 99.07847 35.41337 -2.52557 4.333109 2.768557 8.534472 -33.2206 3.959927 -0 14.38321 -0 -7.789357 -2.697735 0.1119165 -4.172667 12.69063 -14.29755 -0 25.8041 -0 -2.233968 -17.39723 12.53221 -0.01631617 -0.8211215 3.312419 2.767439 9.094803 -8.380848 0.7714675 20.23028 7.940315 5.018575 -25.09444 8.446824 6.896859 -16.07879 11.00045 87.25884 39.20121 -23.10868 -0 0 11.6917 -9.418521 11.38704 3.917731 7.017714 -22.18245 -3.203494 -91.32329 26.56987 19.3573 0 0 -22.46986 7.794759 14.32439 5.810705
3.385377 99.05314 40.76452 -2.63589 3.982379 2.89994 8.151301 -31.49141 2.973231 -0 13.53838 -0 -8.518156 -2.345237 0.06998961 -3.787294 11.8368 -13.42719 -0 30.06068 -0 -4.088364 -16.19512 10.72228 0.4137587 -0.950374 3.300764 2.627735 8.979099 -8.317569 0.6947039 20.44517 7.865322 4.876283 -24.95801 8.218326 6.479113 -15.81655 11.03547 87.74441 37.847 -23.33161 -0 0 10.90944 -10.46979 11.5188 4.45358 6.835247 -22.45174 -3.086257 -91.13833 26.20355 19.16733 0 0 -21.99343 7.321283 14.78824 6.415694
3.629318 99.16426 46.43789 -2.636086 3.419261 2.976028 7.844957 -29.4237 2.132098 -0 12.75085 -0 -9.226712 -1.946916 -0.06293777 -3.491864 10.80153 -12.38932 -0 34.74374 -0 -5.107036 -14.54687 9.437315 0.7886614 -1.168677 3.400658 2.494629 9.130472 -8.280033 0.6194282 20.65126 7.719615 4.653496 -24.77354 7.953021 5.863077 -15.77362 11.14677 88.52862 36.2767 -23.70363 -0 0 10.02156 -11.63266 11.54185 5.077826 6.539709 -22.89195 -3.152729 -90.62629 25.31903 18.77711 0 0 -22.03747 7.314592 14.86622 6.533415
3.845049 99.42851 52.41266 -2.512717 2.516072 2.964245 7.620952 -26.87205 1.417009 -0 12.09665 -0 -9.955633 -1.489006 -0.3163221 -3.273148 9.557702 -11.20146 -0 39.8622 -0 -5.268853 -12.52428 8.748413 1.114804 -1.482237 3.607877 2.339639 9.598594 -8.255146 0.5660538 20.87982 7.485888 4.347883 -24.47696 7.649215 4.973376 -16.00105 11.32665 89.62113 34.32765 -24.17373 -0 0 9.067806 -13.0087 11.49581 5.822793 6.111487 -23.51026 -3.473529 -89.87581 23.97167 18.29726 0 0 -22.57011 7.661535 14.6786 6.281482
4.015379 99.85789 58.6353 -2.252379 1.119855 2.827749 7.468445 -23.73075 0.8109753 -0 11.68272 -0 -10.72303 -0.9440431 -0.7472726 -3.122746 8.12643 -9.9215 -0 45.19679 -0 -4.571932 -10.26392 8.729975 1.395396 -1.892101 3.908048 2.129035 10.43329 -8.226299 0.5744398 21.16413 7.133284 3.934273 -24.01665 7.327061 3.690995 -16.58287 11.55713 91.05901 31.75205 -24.6664 -0 0 8.09854 -14.726 11.43059 6.770529 5.512361 -24.29032 -4.134459 -88.96743 22.29449 17.85797 0 0 -23.6224 8.140487 14.36964 5.922429
4.118281 100.4598 65.0147 -1.877744 -0.8481372 2.538091 7.386608 -20.02692 0.3369431 -0 11.6065 -0 -11.49235 -0.3160052 -1.409954 -3.020586 6.554441 -8.656392 -0 50.33702 -0 -3.127692 -7.974393 9.398694 1.636895 -2.370915 4.275329 1.840046 11.63887 -8.178545 0.6958426 21.50932 6.631082 3.387484 -23.38677 7.030172 1.946847 -17.58483 11.79828 92.82109 28.4015 -25.04988 -0 0 7.232666 -16.8369 11.42366 7.990635 4.716485 -25.14859 -5.17236 -88.01632 20.53755 17.6383 0 0 -25.15133 8.445237 14.10273 5.825026
4.137596 101.2446 71.42276 -1.473081 -3.208162 2.086196 7.378166 -15.97518 0.08780577 -0 11.87174 -0 -12.14142 0.2484032 -2.272248 -2.910737 4.760566 -7.56288 -0 54.82706 -0 -1.30742 -5.901778 10.60016 1.844361 -2.830806 4.703146 1.478667 13.09327 -8.09201 0.9604834 21.85085 5.990191 2.739846 -22.6752 6.810505 -0.09248989 -18.95776 11.99401 94.68269 24.59322 -25.13658 -0 0 6.739749 -19.15258 11.58794 9.421249 3.779661 -25.89827 -6.447178 -87.24344 19.07469 17.90386 0 0 -26.82288 8.286684 14.00905 6.335859
